<svg xmlns="http://www.w3.org/2000/svg" width="256" height="256" viewBox="0 0 256 256"><defs><clipPath id="a"><path d="M26 40.62h16V19.38H26v21.24z"/></clipPath></defs><path d="M256 128c0 70.692-57.308 128-128 128C57.308 256 0 198.692 0 128 0 57.308 57.308 0 128 0c70.692 0 128 57.308 128 128" fill="#9c3"/><path d="M206.63 115.35L85.845 203.112l37.93 52.782c1.407.045 2.81.106 4.226.106 54.737 0 101.427-34.367 119.725-82.694L206.63 115.35z" fill-opacity=".196" fill-rule="evenodd"/><path d="M99.535 210.813a15.887 15.887 0 0 1-15.888-15.888V57.992c0-5.68 3.028-10.924 7.945-13.76a15.86 15.86 0 0 1 15.89 0l95.33 68.463a15.887 15.887 0 0 1 7.943 13.76c0 5.68-3.027 10.923-7.944 13.76l-95.33 68.47a15.867 15.867 0 0 1-7.945 2.128" fill="#fff"/></svg>